# xmcd
#
# Track frame offsets: 
#        225
#        19421
#        34789
#        49419
#        64568
#        83750
#        99989
#        119718
#        135170
#        153095
#
# Disc length: 2264 seconds
#
# Revision: 0
# Processed by: cddbd v1.5.2PL0 Copyright (c) Steve Scherf et al.
# Submitted via: ExactAudioCopyFreeDBPlugin 1.0
#
DISCID=7a08d50a
DTITLE=Joey - In To Love
DYEAR=2004
DGENRE=Country
TTITLE0=In To Love
TTITLE1=Smoke 'N' Mirrors
TTITLE2=Sugar Blues
TTITLE3=Wal-Mart Girl
TTITLE4=Coyote Moon
TTITLE5=Rain
TTITLE6=Black Thunder
TTITLE7=This Can't Be Love
TTITLE8=Fly High
TTITLE9=Soul's Without Wings
EXTD=
EXTT0=
EXTT1=
EXTT2=
EXTT3=
EXTT4=
EXTT5=
EXTT6=
EXTT7=
EXTT8=
EXTT9=
PLAYORDER=
